<?xml version="1.0" encoding="UTF-8"?>
<svg id="_レイヤー_1" data-name="レイヤー_1" xmlns="http://www.w3.org/2000/svg" version="1.1" viewBox="0 0 100 100">
  <!-- Generator: Adobe Illustrator 29.6.1, SVG Export Plug-In . SVG Version: 2.1.1 Build 9)  -->
  <g>
    <path d="M93.43,43.13c-2.96,0-5.47,1.96-6.28,4.66h-1.14c.79-3.06,3.42-5.39,6.64-5.72.26-.03.52-.04.78-.04.11,0,.25,0,.4.01.64.03,1.62.06,2.57-.17.75-.19,1.67-1.16,1.88-1.99.24-.95.02-1.81-.07-2.16C92.6,15.59,72.72.13,49.87.13,22.37.13,0,22.5,0,50c0,.41,0,.81.01,1.22.31,13.06,5.64,25.29,14.99,34.44,9.37,9.16,21.75,14.21,34.86,14.21,8.86,0,17.57-2.35,25.17-6.81,7.38-4.32,13.57-10.51,17.89-17.89,3.5-5.97,5.69-12.49,6.47-19.39.32-2.86.6-4.64.6-6.08,0-3.63-2.94-6.57-6.57-6.57ZM89.36,28.7c.12.22.24.45.36.67,0,0,0,.01.01.02,0,0,0,.02,0,.03.25.49.49.98.73,1.47.65,1.37,1.23,2.78,1.73,4.21l.04.11c.08.23.16.47.24.7,0,0,0,0,0,0,0,0,0,0,0,0l.06.18c.11.33.14.62.09.83-.05.21-.25.29-.41.32-.18.04-.36.06-.51.08-.09.01-.17.02-.25.03-5.45.87-9.57,5.12-10.37,10.43h-1.44c.71-5.17,4.28-9.58,9.33-11.28l.06-.02c.53-.18,1.41-.47,1.65-1.16.22-.61.07-1.24,0-1.45,0,0,0,0,0,0l-.03-.08s0,0,0,0h0s0,0,0,0h0s0,0,0,0c0,0,0,0,0,0h0s0,0,0,0c0,0,0,0,0,0h0s-.02-.05-.02-.05c0,0,0,0,0,0-.19-.47-.39-.94-.6-1.42l-.06-.15s0,0,0,0c-.2-.46-.42-.92-.64-1.38l-.02-.04-.05-.11s0,0,0,0c-.22-.45-.46-.91-.69-1.35,0,0,0,0,0,0l-.03-.05-.05-.09c-.25-.46-.5-.91-.75-1.33l-.07-.12c-.05-.08-.1-.17-.15-.25-.03-.04-.05-.09-.08-.13-.06-.09-.11-.19-.17-.28-.14-.23-.28-.45-.41-.66,0,0,0,0,0,0h0s-.05-.09-.05-.09c0,0,0-.01-.01-.02-.29-.44-.58-.88-.86-1.29,0,0,0,0,0,0,0,0,0,0,0,0,0,0,0,0,0,0,0,0-.02-.03-.02-.03h0s-.01-.02-.01-.02c0,0,0,0,0,0-.09-.13-.18-.26-.28-.38-.13-.19-.27-.38-.4-.56h0s-.04-.05-.05-.08h0s0-.02-.01-.03c-.22-.29-.44-.59-.67-.88,0,0,0,0,0,0-.24-.3-.48-.6-.72-.89-.01-.02-.03-.03-.04-.05h0s-.06-.07-.08-.1h0c-.25-.3-.49-.6-.74-.88h0s0,0,0,0v-.02s-.02,0-.02,0h0s0,0,0,0c0,0-.01-.01-.02-.02-.02-.03-.05-.05-.07-.08,0,0,0,0,0,0,0,0,0,0,0,0-.08-.09-.17-.19-.25-.28-.07-.08-.14-.15-.21-.23-.13-.14-.26-.28-.39-.42-.04-.05-.09-.09-.13-.14h0s-.02-.02-.02-.02c0,0,0,0,0,0,0,0-.02-.02-.02-.02h0s0,0,0,0c0,0,0,0,0,0,0,0-.01-.01-.01-.02,0,0,0,0,0,0,0,0,0,0,0,0,0,0,0,0,0,0-.24-.26-.5-.51-.76-.77-.11-.11-.21-.22-.33-.33,0,0,0,0,0,0,0,0,0,0,0,0l-.09-.09h0c-.17-.17-.35-.34-.53-.51-.05-.05-.11-.1-.17-.15-.12-.11-.24-.22-.36-.33-.02-.01-.03-.03-.05-.04h0s0,0,0,0l-.02-.02s0,0,0,0l-.1-.09c-.26-.23-.52-.46-.79-.7-.03-.03-.07-.06-.1-.09-.08-.07-.16-.13-.23-.2,0,0,0,0,0,0l-.05-.04-.09-.08s-.03-.03-.05-.04c-.13-.11-.27-.22-.41-.34-.02-.01-.04-.03-.05-.04-.02-.02-.05-.04-.07-.06-.1-.08-.21-.16-.31-.25-.09-.07-.18-.15-.27-.22,0,0,0,0,0,0h-.02s0-.02,0-.02l-.13-.1s0,0,0,0c-.39-.3-.79-.6-1.18-.89,0,0,0,0,0,0,0,0,0,0,0,0l-.14-.1s0,0,0,0h0c-.37-.26-.74-.52-1.1-.76-.01,0-.03-.02-.04-.03-.03-.02-.06-.04-.09-.06,0,0,0,0,0,0,0,0,0,0,0,0,0,0,0,0,0,0,0,0,0,0,0,0l-.09-.06s0,0,0,0c0,0-.01,0-.02-.01l-.03-.02s0,0,0,0c-.09-.06-.18-.12-.27-.18-.12-.08-.25-.16-.37-.24-.22-.14-.43-.27-.64-.4,0,0,0,0,0,0h0s0,0,0,0h-.02s-.09-.07-.09-.07c-.1-.06-.19-.11-.29-.17-.13-.08-.25-.15-.38-.22-.06-.03-.11-.07-.17-.1-.13-.07-.25-.15-.38-.22-.04-.02-.07-.04-.11-.06,0,0,0,0,0,0,0,0,0,0-.01,0,0,0,0,0,0,0,0,0,0,0,0,0l-.05-.03h-.02c-.1-.07-.21-.12-.31-.18-.14-.07-.27-.15-.41-.22-.03-.01-.05-.03-.07-.04-.21-.11-.42-.22-.63-.33,0,0,0,0,0,0,0,0,0,0,0,0,0,0,0,0,0,0h0s0,0,0,0c0,0,0,0,0,0,0,0,0,0,0,0-.48-.25-.98-.49-1.47-.72,0,0,0,0,0,0,0,0,0,0,0,0h0s0,0,0,0h0s0,0,0,0c0,0,0,0,0,0,0,0,0,0,0,0,0,0,0,0-.01,0-.21-.1-.42-.19-.64-.29-.07-.03-.14-.06-.2-.09-.09-.04-.17-.07-.26-.11-.12-.05-.23-.1-.35-.15,0,0,0,0,0,0,0,0,0,0,0,0h-.03s-.08-.04-.08-.04c0,0,0,0,0,0-.46-.19-.93-.38-1.44-.57,0,0,0,0,0,0l-.15-.06s0,0,0,0h0c-.45-.17-.94-.34-1.43-.5h0s0,0,0,0h0l-.19-.06c-.22-.07-.44-.14-.67-.21-.09-.03-.18-.05-.26-.08-.12-.04-.23-.07-.35-.11-.05-.01-.1-.03-.14-.04,0,0,0,0,0,0,0,0,0,0,0,0h-.01s0,0,0,0l-.13-.04-.06-.02c-.47-.13-.96-.26-1.45-.38,0,0,0,0,0,0h0s0,0,0,0l-.11-.03h0s-.01,0-.02,0c0,0,0,0,0,0l-.08-.02c-.48-.12-.98-.23-1.47-.33l-.1-.02h-.05s-.08-.03-.08-.03c0,0,0,0,0,0h0s0,0,0,0c-.36-.07-.72-.14-1.07-.2-.14-.02-.28-.05-.42-.07l-.17-.03s-.02,0-.02,0h-.02s0,0,0,0c0,0,0,0,0,0,0,0,0,0,0,0,0,0,0,0,0,0-.11-.02-.23-.04-.34-.05-.1-.01-.19-.03-.29-.04-.05,0-.09-.01-.14-.02-.02,0-.05,0-.07,0-.23-.03-.46-.06-.68-.09l-.14-.02h0s-.03,0-.03,0h-.01s0,0,0,0c-.55-.06-1.07-.12-1.57-.16h-.15c-.45-.05-.87-.07-1.28-.09-.04,0-.09,0-.13,0-.03,0-.06,0-.09,0-.05,0-.09,0-.14,0h0s0,0,0,0c0,0,0,0,0,0h-.09s0,0,0,0c0,0,0,0,0,0-.09,0-.17,0-.26,0-.2,0-.39-.01-.59-.02,0,0,0,0,0,0h0s0,0,0,0c0,0,0,0,0,0,0,0,0,0,0,0-.29,0-.57,0-.85,0C25.68,6.13,5.99,25.81,5.99,50c0,.36,0,.72.01,1.07.28,11.49,4.96,22.25,13.19,30.3,8.24,8.06,19.14,12.5,30.67,12.5,7.8,0,15.46-2.07,22.15-5.99,6.49-3.8,11.94-9.25,15.74-15.74.21-.36.42-.73.62-1.11,0,0,0,0,0,0,0,0,0,0,0,0l.04-.08c.04-.07.07-.14.11-.2l.06-.11h0c.12-.23.24-.46.37-.71,0,0,0,0,0,0,0,0,0,0,0,0,0,0,0,0,0,0,.01-.02.02-.04.03-.06.07-.14.15-.29.22-.44,0,0,0,0,0,0,0,0,0,0,0,0,0-.02.02-.04.03-.05.05-.1.1-.2.15-.31v-.02c.05-.08.09-.16.12-.24,0,0,0,0,0,0l.06-.13h0c.07-.15.13-.29.2-.43,0,0,0,0,0,0,0,0,0,0,0,0,.04-.1.09-.19.13-.29l.06-.14s0,0,0,0c0,0,0,0,0-.01.12-.26.23-.53.34-.79,0-.02.01-.03.02-.05.08-.18.15-.36.22-.54,0-.01.01-.03.02-.04l.03-.07s0-.01,0-.02l.07-.17v-.03s.01,0,.01,0c0,0,0-.02.01-.03.06-.16.12-.31.18-.47.01-.03.02-.07.04-.1.03-.07.06-.15.09-.22l.11-.3s0,0,0,0c.1-.28.2-.56.29-.84,0,0,0-.02,0-.03,0,0,0,0,0,0,0,0,0,0,0,0,0,0,0,0,0,0,0,0,0,0,0,0,.13-.38.26-.77.38-1.16,0,0,0,0,0,0,.12-.4.24-.81.36-1.21,0-.01,0-.03,0-.04,0,0,0-.01,0-.02,0,0,0-.01,0-.02,0-.01,0-.02,0-.03,0,0,0,0,0-.01,0,0,0,0,0,0,0-.01,0-.03,0-.04,0-.01,0-.03,0-.04,0-.02,0-.03-.01-.05,0,0,0-.01,0-.02,0,0,0-.02-.01-.03,0-.02-.02-.04-.03-.05,0,0,0-.02-.01-.02,0,0,0,0,0-.01,0,0,0-.01,0-.01,0,0,0,0,0,0,0-.01-.02-.02-.03-.03,0,0-.02-.02-.02-.03-.01-.01-.03-.03-.05-.04,0,0-.01,0-.02-.01,0,0,0,0-.01,0-.02-.01-.04-.02-.07-.03,0,0-.01,0-.02-.01,0,0-.02,0-.03,0,0,0,0,0-.01,0-.01,0-.02,0-.03,0,0,0-.02,0-.03,0-5.21-.76-9.23-5.02-9.8-10.17h1.12c.62,5.16,5.02,9.18,10.35,9.18.05,0,.1,0,.15,0-.11.45-.23.94-.37,1.46,0,0,0,0,0,0-.11.4-.22.81-.34,1.21l-.06.21c-.15.51-.33,1.05-.51,1.58-.03.09-.06.18-.09.27l-.07.19c-.13.37-.26.74-.4,1.1-.06.15-.12.31-.18.46l-.05.12c-.13.32-.26.64-.4.96-.09.2-.17.4-.26.6,0,0,0,0,0,0-.14.31-.28.62-.43.93l-.05.1c-.07.16-.15.31-.22.47-.16.33-.33.66-.5.99l-.09.17c-.05.1-.1.2-.16.3-.28.52-.54.98-.8,1.42-3.89,6.64-9.46,12.21-16.1,16.1-6.84,4.01-14.67,6.13-22.65,6.13-11.79,0-22.93-4.54-31.36-12.78-8.42-8.23-13.21-19.23-13.49-30.99,0-.36-.01-.73-.01-1.1C5,25.26,25.13,5.14,49.87,5.14c.33,0,.65,0,.98.01h.32s0,.01,0,.01h.07c.19,0,.39.01.58.02.08,0,.16,0,.23.01h.15s0,0,0,0h.11c.16.01.31.02.47.03.03,0,.06,0,.09,0l.33.02s0,0,0,0h.12c.14.02.29.03.43.04.09,0,.19.02.28.03h.15s0,.01,0,.01h.08c.15.02.3.04.45.05.1.01.21.02.31.04h.12s0,.01,0,.01h.06c.15.03.3.04.45.06l.44.06s0,0,0,0h.06c.15.03.29.05.44.07.12.02.23.04.35.06h.08s.08.03.08.03c.14.02.29.05.43.07.12.02.25.04.37.07h.07s0,.01,0,.01h.04c.15.03.3.06.46.09.15.03.29.06.44.09.16.03.32.07.48.1.15.03.3.07.44.1.16.04.32.07.48.11.15.03.29.07.44.11.16.04.31.08.47.12.15.04.29.08.44.12,0,0,0,0,0,0,.15.04.31.08.46.13.15.04.29.08.44.13.15.04.3.09.46.14,0,0,0,0,0,0,.1.03.21.06.31.1.04.01.08.03.12.04.15.05.3.1.45.15.14.05.29.1.43.15.15.05.3.1.45.15.14.05.29.1.43.15,0,0,0,0,0,0,.15.05.29.11.44.16.14.05.29.11.43.16.13.05.27.11.43.17.14.06.29.11.43.17s.28.12.43.18c.14.06.28.12.42.18.12.05.24.11.36.16l.08.04c.13.06.26.12.4.18.12.05.24.11.35.17l.05.03s0,0,0,0h.03c.13.08.26.14.39.2.1.05.2.1.3.15l.1.05s0,0,0,0l.09.04c.11.06.23.11.34.17.09.04.17.09.26.14l.12.07s0,0,0,0l.09.05c.11.06.22.12.33.18,0,0,0,0,0,0,0,0,0,0,0,0,.09.05.18.1.27.15l.1.06s0,0,0,0l.1.06c.11.06.22.12.33.18,0,0,0,0,0,0,0,0,0,0,0,0,.08.04.16.09.23.14l.12.07s0,0,0,0l.1.06c.11.06.22.13.34.2,0,0,0,0,0,0s0,0,0,0l.43.26c.12.07.24.14.35.21l.23.15c.07.04.13.08.19.12.43.27.85.55,1.26.84.14.1.29.2.43.29l.14.09c.15.1.29.21.43.31l.07.05s0,0,0,0l.24.17c.13.1.27.2.4.3l.06.05s0,0,0,0l.26.2c.12.09.24.18.35.28l.36.28c.13.1.25.21.38.31l.32.27c.12.1.25.21.37.31l.32.27c.14.12.27.24.41.36l.27.24c.13.12.27.25.4.37l.26.24c.13.13.26.25.4.38l.26.25c.13.13.26.26.39.39,0,0,0,0,0,0,0,0,.01.01.02.02.08.08.15.16.23.23.13.13.26.26.38.4l.24.26c.13.13.25.27.38.41,0,0,0,0,0,0l.24.26c.12.14.25.27.37.41.08.09.15.18.23.26.12.14.24.28.36.42l.22.27c.12.14.24.29.36.43,0,0,0,0,0,0l.21.27c.12.15.24.3.35.45,0,0,0,0,0,0l.2.26c.12.15.23.31.35.46l.19.26c.11.16.23.31.34.47l.18.26c.11.16.23.32.34.49,0,0,0,0,0,0l.17.26c.11.17.22.33.34.5l.16.25c.11.17.22.35.33.52l.14.23c.11.18.22.36.33.55,0,0,0,0,0,0l.13.21c.11.19.23.38.34.58,0,0,0,0,0,0l.1.18c.12.2.23.41.34.61l.07.14h0s0,0,0,0ZM81.01,51.04c.01.11.02.23.04.34.01.08.02.15.04.23.02.11.03.21.05.32.01.08.03.16.05.24.02.1.04.2.06.3.02.08.04.16.06.24.02.1.05.2.08.3.02.08.05.16.07.23.03.1.06.19.09.29.03.08.05.16.08.23.03.09.07.19.1.28.03.08.06.15.09.23.04.09.07.18.11.28.03.08.07.15.1.22.04.09.08.18.12.27.04.07.07.15.11.22.04.09.09.18.14.27.04.07.08.14.12.21.05.09.1.17.15.26.04.07.08.14.13.21.05.08.1.17.16.25.04.07.09.14.13.2.06.08.11.16.17.24.05.07.09.13.14.2.06.08.12.16.18.24.05.06.1.13.15.19.06.08.13.15.19.23.05.06.1.12.16.18.07.08.13.15.2.22.05.06.11.12.16.17.07.07.14.14.21.21.06.06.11.11.17.17.07.07.15.14.22.21.06.05.12.11.18.16.08.07.15.13.23.2.06.05.12.1.18.15.08.06.16.13.24.19.06.05.12.1.19.14.08.06.17.12.25.18.06.04.13.09.19.13.09.06.17.11.26.17.07.04.13.08.2.12.09.05.18.11.27.16.07.04.13.08.2.11.09.05.19.1.28.15.07.04.13.07.2.1.1.05.19.09.29.14.07.03.14.06.21.09.1.04.2.09.3.13.07.03.14.06.21.08.1.04.21.08.32.12.07.02.13.05.2.07.11.04.22.07.33.11.07.02.13.04.2.06.12.03.24.06.36.09.06.02.12.03.18.05.13.03.27.06.4.09.05.01.1.02.15.03,0,0,0,0,.01,0-.07.22-.13.45-.2.67,0,0,0,0,0,0-.12.38-.24.76-.37,1.14,0,0,0,0,0,0-.05.14-.09.27-.14.4-.05.15-.1.29-.15.44l-.11.3s0,.02,0,.02c-.07.18-.14.36-.21.54-.05.14-.11.28-.17.42l-.04.1s0,0,0,0c0,0,0,0,0,0h0c-.08.2-.17.41-.26.62-.11.26-.22.52-.34.78,0,0,0,0,0,0l-.11.24c-.11.24-.22.47-.33.71l-.06.13-.04.09s0,0,0,0c0,0,0,0,0,.01-.13.27-.26.53-.39.8-.01.02-.02.05-.04.07,0,0,0,0,0,.01-.12.23-.24.47-.37.7,0,0,0,0,0,0l-.07.13c-.05.09-.09.17-.14.26,0,0,0,0,0,0-.2.36-.4.72-.61,1.08,0,0,0,0,0,0-3.72,6.35-9.04,11.68-15.4,15.4-6.54,3.83-14.03,5.86-21.66,5.86-11.28,0-21.93-4.34-30-12.23-8.05-7.87-12.63-18.4-12.9-29.64,0-.35-.01-.7-.01-1.05C6.95,26.34,26.2,7.09,49.87,7.09c.48,0,.98.01,1.49.03.06,0,.12,0,.18,0,0,0,0,0,0,0h.09c.19.01.39.02.58.03.08,0,.15,0,.23.01.17.01.36.02.54.04.09,0,.17.01.25.02,0,0,0,0,0,0h.07c.54.05,1.08.1,1.62.16h0s0,0,0,0h0s.05,0,.05,0c.39.05.78.1,1.18.16.15.02.3.04.46.07h.04c.51.09,1.02.18,1.52.28.04,0,.07.01.11.02h.03s.06.02.06.02c.09.02.17.04.26.05.4.08.81.17,1.21.27.06.01.11.03.17.04h.03s0,0,0,0l.11.03c.48.12.96.24,1.42.37,0,0,0,0,0,0l.21.06c.08.02.16.05.24.07.41.12.82.25,1.22.38l.13.04c.32.11.63.21.93.32.16.06.32.11.47.17l.15.06s0,0,0,0h0c.1.04.19.07.28.11.22.08.43.17.64.25.16.07.33.13.49.2,0,0,0,0,0,0,0,0,0,0,0,0l.1.04c.21.09.41.17.61.26.07.03.14.06.2.09.19.08.38.17.56.25.02.01.05.02.07.03,0,0,0,0,0,0,0,0,0,0,0,0,0,0,0,0,.01,0,0,0,0,0,0,0,0,0,0,0,0,0,.24.11.49.23.73.34.09.04.17.09.26.13.15.08.31.15.46.23,0,0,0,0,0,0,0,0,0,0,0,0h0s.01,0,.02.01c.15.08.3.16.45.24.08.04.16.09.25.13.22.12.45.24.68.37,0,0,0,0,0,0h0s.03.02.03.02h0s0,0,0,0h.03c.2.13.41.25.62.37.01,0,.02.01.03.02.03.02.05.03.08.05.19.11.39.23.59.35h.02s.03.03.03.03h0s0,0,0,0h0s0,0,0,0l.05.03c.41.25.83.52,1.26.8,0,0,0,0,0,0,0,0,0,0,0,0l.05.03h0s.08.05.08.05c0,0,0,0,0,0h0s0,0,0,0c0,0,0,0,0,0,.14.1.29.2.44.3.13.09.26.18.39.27.13.09.26.18.39.27,0,0,0,0,0,0l.14.1c.39.28.78.58,1.17.87l.12.1s.04.03.06.04c.37.29.73.58,1.08.88,0,0,0,0,0,0,0,0,0,0,0,0h0s0,0,0,0l.13.11s0,0,0,0h0s0,0,0,0c0,0,0,0,0,0,0,0,0,0,0,0,.1.08.2.17.3.26.3.25.59.51.88.78h0s0,.01.02.02c0,0,0,0,.01,0,0,0,0,0,0,0,.19.18.39.36.58.54,0,0,.01.01.02.02.19.18.37.35.55.53,0,0,0,0,0,0,0,0,.02.02.02.02.37.36.73.72,1.07,1.09l.03.03s0,0,0,0l.02.02h0s0,0,0,0c.17.18.34.37.51.55.06.06.11.12.16.18.13.14.25.28.37.41l.03.03s0,0,0,0h0c.09.1.18.21.27.31.16.18.31.36.47.55l.09.1s0,0,0,0c.01.02.03.04.04.05,0,0,0,0,0,0,.23.28.46.56.68.85.18.23.35.46.53.69.05.07.11.14.17.22l.06.08c.15.21.3.42.45.63.07.1.15.2.22.3,0,0,.02.03.02.03,0,0,0,0,0,0v.02s.01,0,.01,0c.14.2.28.41.43.63.03.05.07.1.1.15.11.17.22.34.33.51,0,0,0,0,0,0l.06.09c.09.15.19.3.28.45.17.27.34.55.51.84h0s.06.11.06.11c0,0,0,0,0,0h0s0,0,0,0c.24.42.49.85.73,1.3h0s0,0,0,0h0s0,0,0,0c0,0,0,0,0,0l.07.13s0,0,0,0h0s0,0,0,0c.23.43.46.88.68,1.32,0,0,0,0,0,0,0,0,0,0,0,0v.03s.01,0,.01,0c.49.99.94,2.02,1.35,3.04h0s0,0,0,0h0s.03.08.03.08c.04.09.1.47,0,.78-.09.25-.79.48-1.05.57l-.06.02c-5.44,1.84-9.27,6.61-9.99,12.19h-1.07c.63-5.35,3.89-10,8.82-12.41,0,0,0,0,0,0,.08-.04.18-.07.28-.12.41-.16.98-.38,1.26-.82.45-.72-.02-1.8-.03-1.81-.24-.53-.5-1.05-.76-1.56,0,0,0-.01,0-.02-.01-.02-.03-.05-.04-.07-.26-.51-.53-1.01-.81-1.51-.02-.04-.05-.09-.08-.13-.29-.51-.59-1.02-.9-1.52,0-.01-.02-.03-.03-.04-.96-1.54-2.03-3.01-3.19-4.41-.04-.04-.07-.09-.11-.13-.36-.43-.73-.85-1.1-1.27-.05-.06-.11-.12-.16-.18-.37-.41-.75-.81-1.14-1.2-.05-.05-.1-.1-.16-.15-.41-.41-.82-.81-1.24-1.2l-.11-.1c-.18-.17-.37-.33-.56-.5-.13-.12-.26-.23-.39-.35l-.21-.18c-.3-.26-.61-.5-.91-.75l-.11-.09c-.06-.05-.12-.1-.18-.14-.29-.23-.59-.45-.88-.67l-.05-.04-.07-.05c-.05-.04-.11-.08-.16-.12-.03-.02-.05-.04-.08-.06h0s0,0,0,0c-.28-.21-.57-.41-.86-.61l-.11-.07c-.1-.07-.2-.14-.31-.21,0,0,0,0,0,0,0,0,0,0,0,0h0s0,0,0,0c-.28-.19-.56-.37-.85-.55-.15-.1-.31-.2-.46-.29-.28-.17-.55-.34-.83-.5-.17-.1-.34-.2-.51-.3-.27-.16-.55-.31-.82-.46-.18-.1-.37-.2-.56-.3-.27-.14-.54-.28-.81-.41t0,0c-.2-.1-.4-.19-.6-.29-.27-.13-.53-.25-.8-.37-.21-.09-.42-.19-.63-.28-.26-.11-.53-.23-.8-.33-.22-.09-.45-.18-.67-.26-.26-.1-.53-.2-.79-.3-.23-.08-.47-.16-.7-.25t0,0h0c-.26-.09-.52-.18-.78-.26-.23-.07-.46-.14-.69-.21l-.09-.03c-.24-.07-.49-.15-.74-.22-.22-.06-.44-.12-.66-.18h-.01s-.01,0-.02,0l-.19-.05s0,0-.01,0h-.02c-.21-.06-.42-.11-.63-.16-.22-.05-.44-.1-.66-.15l-.32-.07c-.19-.04-.38-.08-.58-.12-.23-.05-.46-.09-.69-.13l-.36-.06c-.18-.03-.36-.06-.53-.09-.24-.04-.48-.07-.72-.1l-.39-.05c-.16-.02-.33-.05-.49-.07-.26-.03-.53-.06-.79-.08l-.4-.04c-.14-.01-.29-.03-.43-.04-.33-.03-.66-.04-.98-.06l-.32-.02c-.11,0-.22-.01-.34-.02-.56-.02-1.12-.03-1.66-.03-23.07,0-41.84,18.77-41.84,41.84,0,.34,0,.68.01,1.02.26,10.96,4.73,21.22,12.58,28.9,7.86,7.69,18.25,11.92,29.25,11.92,14.8,0,28.64-7.94,36.13-20.73,1.4-2.39,2.56-4.93,3.46-7.55,0,0,0,0,0,0,0,0,0,0,0,0,0-.01,0-.03,0-.04,0-.01,0-.03,0-.04,0,0,0,0,0,0,0-.02,0-.03,0-.05,0,0,0-.01,0-.02,0,0,0-.01,0-.02,0,0,0,0,0,0,0-.02,0-.03,0-.05,0-.01,0-.03,0-.04,0,0,0,0,0,0,0-.02-.01-.03-.02-.04,0-.01,0-.03-.02-.04,0,0,0,0,0,0,0,0,0,0,0,0,0-.01-.02-.03-.02-.04,0-.01-.01-.03-.02-.04,0-.01-.02-.02-.03-.04-.01-.01-.02-.02-.03-.03-.01-.01-.03-.02-.04-.03-.01,0-.02-.02-.04-.02-.02,0-.03-.02-.05-.02-.01,0-.02-.01-.04-.02,0,0,0,0,0,0,0,0,0,0,0,0-5.37-1.73-9.1-6.47-9.59-12.01h1.44s0,.07.01.11ZM78.62,51.12c.01.12.02.24.04.35,0,.08.02.16.03.25.02.11.03.22.05.33.01.09.03.17.05.26.02.11.04.21.06.32.02.09.04.17.06.26.02.1.04.21.07.31.02.09.04.17.07.25.03.1.05.2.08.31.02.09.05.17.08.25.03.1.06.2.09.3.03.08.06.17.09.25.03.1.07.19.1.29.03.08.06.17.1.25.04.1.07.19.11.28.03.08.07.16.11.25.04.09.08.19.12.28.04.08.08.16.12.24.04.09.09.18.13.27.04.08.08.16.12.24.05.09.09.18.14.27.04.08.09.16.13.23.05.09.1.17.15.26.05.08.09.15.14.23.05.08.11.17.16.25.05.08.1.15.15.22.06.08.11.16.17.24.05.07.11.15.16.22.06.08.12.16.18.24.06.07.11.14.17.21.06.08.12.15.19.23.06.07.12.14.18.21.06.07.13.15.2.22.06.07.12.14.19.2.07.07.14.14.2.21.06.07.13.13.19.2.07.07.14.14.21.2.07.06.13.13.2.19.07.07.15.13.22.2.07.06.14.12.21.18.07.06.15.13.23.19.07.06.15.12.22.17.08.06.16.12.23.18.08.06.15.11.23.17.08.06.16.11.24.17.08.05.16.11.23.16.08.05.16.11.25.16.08.05.16.1.24.15.08.05.17.1.25.15.08.05.17.1.25.14.09.05.17.09.26.14.08.04.17.09.26.13.09.04.18.09.27.13.09.04.17.08.26.12.09.04.18.08.28.12.09.04.18.08.27.11.09.04.19.07.28.11.09.03.18.07.27.1.02,0,.03.01.05.02-.03.09-.06.18-.1.27-.05.14-.1.28-.15.42-.06.17-.13.34-.2.51-.05.14-.11.28-.17.42-.07.17-.14.33-.2.5-.06.14-.12.28-.18.42-.07.16-.14.33-.22.49-.06.14-.12.28-.19.41-.08.16-.15.33-.23.49-.06.13-.13.27-.19.4-.08.17-.17.33-.25.5-.06.13-.13.25-.19.38-.1.18-.19.36-.29.54-.06.11-.11.22-.17.32-.16.29-.32.57-.49.85-7.32,12.49-20.84,20.25-35.3,20.25-10.75,0-20.9-4.14-28.58-11.65-7.67-7.5-12.04-17.53-12.29-28.24,0-.33-.01-.66-.01-1,0-22.54,18.34-40.88,40.88-40.88.53,0,1.07.01,1.62.03.1,0,.21.01.31.02h.23s0,.01,0,.01h.1c.32.02.64.04.96.06h0s0,0,0,0c.14.01.27.02.41.04l.24.02h0s.17.02.17.02c.26.02.51.05.77.08h0s0,0,0,0c.16.02.32.04.47.06l.22.03h0s.17.02.17.02c.23.03.47.06.7.1h0s0,0,0,0c.17.03.34.06.51.09l.21.04h0s.16.03.16.03c.22.04.45.08.67.12h0s0,0,0,0c.19.04.37.08.56.12l.18.04.14.03c.22.05.44.09.65.14.21.05.42.1.63.16l.12.03h0s.09.02.09.02c.22.06.45.11.67.18.24.07.47.14.71.21h.05s.05.03.05.03c.22.07.45.13.67.2.26.08.51.17.77.26.23.08.46.16.68.24,0,0,0,0,0,0h0c.26.09.52.19.77.29.22.08.44.17.65.26.26.11.52.22.78.33.21.09.41.18.62.27h0s0,0,0,0c.26.12.53.24.79.36.19.09.39.19.58.28h0s0,0,0,0h0c.27.13.53.27.79.4.17.09.34.18.51.27.01,0,.02.01.04.02,0,0,0,0,0,0,.27.15.54.29.8.45.17.1.33.19.5.29h0s0,0,0,0c.27.16.54.32.81.49.15.09.3.19.45.29.28.18.55.36.83.54.1.07.2.14.3.2l.03.02.07.05h0c.28.2.56.39.84.6.08.06.15.11.23.17l.12.09h0s0,0,0,0c.29.22.58.44.86.66.06.04.11.09.17.14l.11.09h0c.3.24.6.48.89.73l.21.18c.31.27.63.54.93.82l.11.1c.42.38.82.78,1.22,1.17.05.05.1.1.15.15.29.3.58.6.86.9l5.58,7.57s.03.05.05.08c.02.04.05.08.07.13.27.49.54.98.79,1.48.27.53.53,1.07.78,1.62.09.21.2.73.09.9-.11.17-.53.33-.79.43-.14.05-.27.1-.36.15,0,0,0,0,0,0-5.26,2.58-8.73,7.56-9.36,13.27h-1.1c.57-5.46,3.59-10.35,8.32-13.32,0,0,0,0,.01,0,0,0,0,0,.01,0,.48-.3,1.14-.76,1.42-1.3.34-.66-.12-1.56-.17-1.66-5.04-9.59-13.6-16.52-23.62-19.57,0,0,0,0,0,0,0,0,0,0-.01,0-.42-.13-.84-.25-1.27-.36-.03,0-.07-.02-.1-.03-.06-.02-.12-.03-.18-.04-.34-.09-.68-.17-1.02-.25-.07-.02-.14-.03-.21-.05-.07-.02-.15-.03-.22-.05-.29-.06-.58-.12-.87-.18-.11-.02-.22-.05-.33-.07,0,0,0,0,0,0-.1-.02-.19-.04-.29-.05-.23-.04-.46-.08-.7-.12-.15-.03-.3-.05-.46-.07-.06,0-.13-.02-.19-.03-.25-.04-.49-.07-.74-.1h-.08c-.15-.03-.3-.05-.46-.07,0,0,0,0,0,0-.05,0-.1,0-.15-.01-.25-.03-.5-.05-.75-.07h-.16s-.03-.02-.03-.02c-.13-.01-.27-.03-.4-.04,0,0,0,0,0,0-.03,0-.06,0-.09,0-.26-.02-.53-.03-.79-.05,0,0,0,0,0,0h-.26s-.03-.02-.03-.02c-.1,0-.21-.01-.31-.02h0s-.04,0-.06,0c-.07,0-.13,0-.2,0-.42-.01-.85-.02-1.25-.02-21.95,0-39.81,17.86-39.81,39.81,0,.33,0,.65.01.97.25,10.43,4.5,20.19,11.97,27.5,7.48,7.32,17.37,11.34,27.83,11.34,14.08,0,27.25-7.56,34.38-19.72.23-.39.44-.78.66-1.17.04-.08.08-.15.12-.23.36-.68.7-1.36,1.02-2.05.01-.03.02-.06.03-.09.27-.6.54-1.21.79-1.82,0-.01,0-.02.01-.04,0-.01,0-.03.01-.04,0-.02,0-.03,0-.05,0-.01,0-.03,0-.04,0-.02,0-.03,0-.05,0-.01,0-.03,0-.04,0-.02,0-.03-.01-.05,0-.01,0-.02-.01-.04,0-.02-.01-.03-.02-.05,0-.01-.01-.02-.02-.03,0-.02-.02-.03-.03-.04,0-.01-.01-.02-.02-.03-.01-.01-.03-.03-.04-.04,0,0-.02-.02-.02-.02-.03-.02-.05-.04-.08-.05-5.17-2.45-8.64-7.53-9.08-13.18h1.06c0,.06.01.12.02.19ZM76.59,51.13c.01.12.02.24.03.36,0,.08.02.17.03.25.01.11.03.22.04.34.01.09.03.17.04.26.02.11.03.22.05.33.02.09.03.17.05.26.02.11.04.21.06.32.02.09.04.17.06.26.02.1.05.21.07.31.02.09.05.17.07.26.03.1.06.21.08.31.03.09.05.17.08.26.03.1.06.2.1.3.03.09.06.17.09.25.03.1.07.2.11.3.03.08.06.17.1.25.04.1.08.2.12.29.03.08.07.17.11.25.04.1.08.19.12.29.04.08.08.16.11.25.04.09.09.19.13.28.04.08.08.16.12.24.05.09.09.19.14.28.04.08.09.16.13.24.05.09.1.18.15.27.05.08.09.16.14.23.05.09.11.18.16.27.05.08.1.15.15.23.06.09.11.17.17.26.05.08.1.15.15.22.06.09.12.17.18.26.05.07.11.15.16.22.06.08.13.17.19.25.06.07.11.14.17.21.07.08.13.16.2.24.06.07.12.14.18.21.07.08.14.16.21.23.06.07.12.13.18.2.07.08.14.15.22.23.06.07.13.13.19.19.07.07.15.15.22.22.06.06.13.13.2.19.08.07.15.14.23.22.07.06.13.12.2.18.08.07.16.14.24.21.07.06.14.12.21.17.08.07.17.13.25.2.07.06.14.11.21.17.09.07.17.13.26.19.07.05.14.11.22.16.09.06.18.12.27.18.07.05.15.1.22.15.09.06.18.12.28.18.08.05.15.09.23.14.09.06.19.11.29.17.08.04.15.09.23.13.1.06.2.11.3.16.08.04.15.08.23.12.03.01.05.03.08.04-.5,1.21-1.06,2.39-1.66,3.53-.04.08-.09.16-.13.24-.19.36-.39.71-.59,1.06-6.95,11.87-19.81,19.25-33.55,19.25-10.21,0-19.86-3.93-27.16-11.07-7.29-7.13-11.44-16.66-11.68-26.83,0-.32-.01-.63-.01-.95,0-21.42,17.43-38.85,38.85-38.85.41,0,.81,0,1.22.02.07,0,.13,0,.2,0,.17,0,.35.02.52.03h.04s.09,0,.09,0c.26.01.52.03.78.04.2.01.41.03.61.05h.08s.15.02.15.02c.19.02.38.04.56.05.22.02.43.05.65.08l.13.02.15.02c.15.02.31.04.46.06.21.03.43.06.64.1.01,0,.02,0,.04,0l.17.03.12.02c.14.02.27.05.41.07.18.03.37.07.55.1.07.01.14.03.21.04l.13.03s0,0,0,0l.1.02c.13.03.26.05.39.08.15.03.3.07.45.1.13.03.25.06.38.09l.09.02s0,0,0,0h.06c.14.05.28.09.43.12.1.03.2.05.3.08.2.05.4.11.59.17,0,0,0,0,0,0,.21.06.43.12.64.19,0,0,.01,0,.02,0,.24.07.47.15.71.22.14.04.27.09.41.14.07.02.14.04.2.07,0,0,0,0,0,0,.24.08.48.17.72.26.19.07.39.14.58.22.12.05.23.09.35.14.13.05.26.1.38.15,0,0,0,0,0,0,.18.07.36.15.54.23,0,0,0,0,0,0,.25.11.5.22.74.33.17.08.34.15.5.23,0,0,0,0,0,0,.05.03.11.05.16.08.2.09.4.19.6.29.15.08.31.16.46.23.26.13.52.27.78.41.12.07.24.13.36.2l.05.03c.27.15.54.3.8.46.08.05.16.1.24.15l.11.07s0,0,0,0c.28.17.56.34.83.51h0s0,0,0,0l.28.19s0,0,0,0c.29.19.58.38.87.58,0,0,0,0,0,0h0l.2.14c.31.22.62.44.93.67l.08.06s0,0,0,0c0,0,0,0,0,0,4.16,3.12,7.6,6.96,10.23,11.43,0,0,0,.01.01.02.31.52.61,1.05.89,1.6.12.24.23.65.16.78-.09.17-.34.47-1.07.92,0,0-.02.02-.02.02-5.01,3.16-8.19,8.34-8.77,14.14h-1c.52-5.52,3.27-10.52,7.75-13.95,0,0,0,0,0,0l.07-.05c.66-.5,1.34-1.1,1.42-1.77.05-.46-.27-1.07-.8-1.89l-.18-.29c-.41-.65-.86-1.31-1.31-1.94l-.12-.17c-.21-.28-.41-.56-.63-.83h0s-.08-.1-.08-.1c-.24-.31-.49-.62-.74-.92h0s0,0,0,0l-.07-.08s0,0,0,0h0c-.22-.26-.45-.52-.67-.78,0,0-.01-.01-.02-.02l-.15-.17c-.52-.58-1.06-1.15-1.6-1.68l-.14-.14c-.24-.23-.47-.46-.72-.68l-.15-.14c-.56-.52-1.15-1.02-1.75-1.51l-.19-.16c-.26-.21-.52-.41-.79-.62h0s-.12-.1-.12-.1c-.31-.23-.62-.46-.94-.68l-.14-.1c-.27-.19-.54-.37-.81-.55l-.22-.15h0s0,0,0,0c0,0,0,0-.01,0-.31-.2-.62-.4-.95-.6-.33-.2-.66-.39-1-.58,0,0,0,0,0,0h0s0,0,0,0l-.23-.13s0,0,0,0c-.27-.15-.54-.29-.81-.44h0s0,0,0,0l-.23-.12c-.34-.18-.68-.35-1.03-.51h0s-.1-.05-.1-.05c-.31-.15-.63-.29-.94-.43l-.28-.12c-.29-.13-.59-.25-.88-.37l-.19-.08c-.36-.14-.71-.28-1.07-.41h0s-.23-.08-.23-.08c0,0,0,0,0,0-.29-.1-.58-.2-.87-.29l-.3-.1c-.35-.11-.71-.22-1.07-.32,0,0-.04-.01-.04-.01-.37-.11-.74-.2-1.12-.3l-.3-.07c-.29-.07-.59-.14-.88-.2,0,0,0,0,0,0l-.29-.06c-.38-.08-.76-.15-1.14-.22h0s0,0,0,0l-.19-.03c-.32-.06-.65-.11-.98-.15h0s0,0,0,0l-.34-.05c-.32-.04-.64-.08-.96-.12h0s0,0,0,0l-.22-.03c-.39-.04-.78-.07-1.17-.1h0s0,0,0,0l-.3-.02c-.31-.02-.62-.04-.93-.05h-.34c-.4-.03-.8-.03-1.2-.03-20.83,0-37.78,16.95-37.78,37.78,0,.31,0,.62.01.92.24,9.9,4.27,19.16,11.36,26.1,7.1,6.94,16.48,10.76,26.41,10.76,13.36,0,25.87-7.17,32.63-18.72.16-.28.32-.56.48-.84,0,0,0,0,0,0,.14-.25.27-.5.41-.76,0,0,0,0,0,0h0s0,0,0,0c.29-.56.58-1.15.87-1.79,0,0,0-.01,0-.02,0-.02.01-.03.02-.05,0-.01,0-.03.01-.04,0-.02,0-.03,0-.05,0,0,0,0,0,0,0,0,0,0,0-.01,0,0,0-.02,0-.03,0-.02,0-.03,0-.05,0-.02,0-.03,0-.05,0-.01,0-.02,0-.04,0,0,0-.01,0-.02,0-.01,0-.02-.01-.04,0-.01-.01-.03-.02-.04,0-.01-.01-.03-.02-.04,0,0-.01-.02-.02-.02,0,0,0,0,0-.01,0,0,0,0,0,0,0-.01-.02-.02-.03-.04-.01-.01-.02-.02-.03-.03-.01-.01-.03-.02-.04-.03,0,0-.01,0-.02-.01-5.05-3.08-8.19-8.3-8.58-14.13h1.1c0,.06.01.13.02.19ZM74.53,51.16c0,.12.02.25.03.37,0,.09.02.17.03.26.01.12.02.23.04.35.01.09.03.18.04.27.02.11.03.22.05.33.01.09.03.18.05.27.02.11.04.22.06.33.02.09.04.18.05.27.02.11.04.21.07.32.02.09.04.18.06.27.03.11.05.21.08.32.02.09.05.18.07.26.03.1.06.21.09.31.03.09.05.17.08.26.03.1.06.21.1.31.03.09.06.17.09.26.04.1.07.2.11.3.03.09.06.17.1.25.04.1.08.2.12.3.03.08.07.17.1.25.04.1.08.2.12.29.04.08.07.17.11.25.04.1.09.19.13.29.04.08.08.16.12.24.05.1.09.19.14.29.04.08.08.16.13.24.05.09.1.19.15.28.04.08.09.16.14.24.05.09.11.18.16.27.05.08.1.16.14.24.06.09.11.18.17.27.05.08.1.16.15.23.06.09.12.17.18.26.05.08.11.15.16.23.06.09.12.17.18.25.06.08.11.15.17.22.06.08.13.17.19.25.06.07.12.15.17.22.07.08.13.16.2.24.06.07.12.14.18.22.07.08.14.16.2.23.06.07.13.14.19.21.07.08.14.15.21.23.07.07.13.14.2.21.07.07.14.15.22.22.07.07.14.14.21.21.07.07.15.14.22.21.07.07.15.14.22.2.07.07.15.13.23.2.08.07.15.13.23.2.08.06.15.13.23.19.08.07.16.13.24.19.08.06.15.12.23.18.08.06.17.13.25.19.08.06.16.11.24.17.09.06.17.13.26.19.08.05.16.11.24.16.09.06.18.12.28.18.02.02.05.03.07.05,0,.01,0,.02-.01.03-.1.21-.19.41-.29.6-.02.05-.05.09-.07.14-.1.2-.2.4-.3.59,0,0,0,0,0,0,0,0,0,0,0,0-.13.25-.26.5-.4.74,0,0,0,0,0,0-.15.27-.3.55-.46.82-6.59,11.25-18.77,18.24-31.8,18.24-9.68,0-18.82-3.73-25.74-10.49-6.91-6.75-10.84-15.79-11.07-25.43,0-.3-.01-.6-.01-.9,0-20.3,16.52-36.82,36.82-36.82.39,0,.78,0,1.17.02h.33c.3.02.6.04.9.06h0s0,0,0,0l.29.02c.38.03.76.06,1.14.1h0s.22.02.22.02c.31.03.63.07.94.11l.33.05c.32.05.64.1.95.15l.18.03c.37.07.74.14,1.11.22l.28.06c.29.06.58.13.86.2l.3.07c.37.09.73.19,1.09.29l.13-.46-.1.47c.35.1.7.21,1.04.32h0s.29.09.29.09c.29.09.57.19.85.29l.23.08c.35.13.7.26,1.05.4h0s.18.07.18.07c.29.12.58.24.86.36l.27.12c.31.14.61.28.92.42h0s0,0,0,0l.09.04c.34.16.67.33,1,.5,0,0,0,0,0,0l.22.12c.27.14.53.29.8.43l.22.12s.01,0,.02.01c.32.18.63.36.94.55,0,0,.02.01.03.02.31.19.62.39.92.58h0s.22.14.22.14c.27.18.53.35.79.54,0,0,0,0,0,0l.14.1c.31.22.61.44.91.67l.12.09c.26.2.52.4.77.6l.19.15c.58.47,1.15.97,1.7,1.47h0s.15.14.15.14c.23.22.47.44.7.67l.14.14c.53.52,1.05,1.08,1.56,1.64l.14.16c.23.26.45.52.67.78h0s0,0,0,0l.06.08c.25.3.49.6.72.9l.08.1c.21.27.41.54.61.81l.12.16c.45.62.88,1.25,1.28,1.89l.1.15s0,0,0,0c.18.28.35.57.52.86,0,0,0,.01.01.02.16.31.21.45.21.52-.02.16-.21.49-1.04,1.11l-.07.06s0,0,0,0c-4.71,3.61-7.6,8.89-8.12,14.71h-1.13c.48-5.52,3.03-10.7,7.17-14.44,0,0,0,0,0,0,.05-.04.11-.1.18-.16.4-.33,1-.83,1.14-1.39.17-.65-.26-1.48-.39-1.67-6.66-9.94-17.77-15.88-29.72-15.88-19.71,0-35.75,16.04-35.75,35.75,0,.29,0,.58.01.87.22,9.37,4.04,18.14,10.75,24.69,6.72,6.57,15.59,10.19,24.99,10.19,12.65,0,24.48-6.79,30.87-17.71.31-.53.62-1.09.94-1.72,0,0,0,0,0,0,0-.02.01-.03.02-.05,0-.01.01-.03.01-.04,0-.02,0-.03,0-.05,0,0,0,0,0,0,0,0,0-.01,0-.02,0,0,0-.01,0-.02,0-.01,0-.03,0-.04,0-.02,0-.03,0-.05,0-.01,0-.02,0-.03,0,0,0-.01,0-.02,0-.01,0-.02,0-.03,0-.01-.01-.03-.02-.04,0-.01-.01-.03-.02-.04,0,0,0-.01-.01-.02,0,0,0,0-.01-.01,0,0,0,0,0,0,0-.01-.02-.03-.03-.04,0,0-.02-.02-.03-.03-.01-.01-.03-.03-.04-.04,0,0,0,0,0,0-4.79-3.56-7.67-8.9-8.02-14.79h1c0,.08.01.15.02.23ZM72.65,52.05s0,.04,0,.06c.04.37.1.74.16,1.11,0,.03,0,.05.01.08.06.36.14.72.22,1.08,0,.03.01.07.02.1.08.35.18.7.28,1.04.01.04.02.08.03.11.1.34.21.68.33,1.01.01.04.03.08.04.12.12.33.25.66.38.98.02.04.04.09.06.13.14.32.28.63.43.95.02.05.04.09.07.14.15.31.31.61.48.91.03.05.05.09.08.14.17.3.35.59.53.88.03.05.06.09.09.14.19.29.38.57.58.85.03.04.06.09.1.13.2.28.41.55.63.82.03.04.07.09.1.13.22.27.44.53.67.78.04.04.07.08.11.12.23.25.47.5.72.75.04.04.08.07.11.11.25.24.51.48.77.71.04.03.08.07.12.1.27.23.54.45.82.67.02.01.03.03.05.04,0,0,0,.02-.01.02-.11.21-.22.41-.33.6-.02.04-.04.08-.07.12-.11.19-.22.38-.32.57-6.23,10.63-17.74,17.24-30.05,17.24-9.15,0-17.78-3.52-24.32-9.91-6.53-6.38-10.24-14.92-10.46-24.03,0-.28-.01-.57-.01-.85,0-19.19,15.61-34.79,34.79-34.79,11.63,0,22.45,5.78,28.93,15.45.1.15.31.67.26.89-.07.26-.58.69-.83.9-.08.07-.16.13-.21.18,0,0,0,0,0,0-4.34,3.93-7.01,9.37-7.49,15.16h-9.11c-.84,0-1.2-.56-1.32-.83-1.05-2.37-3.42-4.03-6.19-4.03-3.33,0-6.1,2.41-6.66,5.58-.06.33-.23,1.01-1.02,1.01h-27.14c-1.64,0-2.27.92-2.47,1.32-.28.56-.3,1.62-.28,1.87.67,8.4,4.45,16.2,10.66,21.96,6.24,5.79,14.36,8.97,22.87,8.97,11.9,0,23.03-6.38,29.05-16.66l.07-.12c.12-.2.07-.45-.1-.6-4.45-3.92-7.13-9.44-7.46-15.31h1.13c.02.37.06.75.1,1.12ZM28.68,74.88c-.35-.3-.7-.6-1.04-.92-6.03-5.59-9.7-13.17-10.35-21.33,0-.12,0-.39.03-.66.14-.49.42-.72,2.05-.72h27.04c.84,0,1.11.72,1.25,1.06,1.02,2.44,3.43,4.16,6.24,4.16,3.01,0,5.56-1.96,6.44-4.68.09-.28.18-.85,1.15-.85h8.98c.33,6.02,3.01,11.69,7.49,15.77-1.86,3.13-4.22,5.87-6.93,8.17h-20.06v7.78c-.27,0-.54.01-.81.01v-7.8h-21.48ZM82.05,47.79c.79-4.84,4.57-8.69,9.55-9.48.07-.01.14-.02.22-.03.18-.02.37-.05.58-.09.6-.12,1.03-.51,1.15-1.04.11-.48,0-1-.11-1.35l-.06-.18c-.08-.24-.16-.48-.24-.72,0,0,0,0,0,0l-.04-.11c-.7-1.98-1.54-3.94-2.51-5.8,0,0,0,0,0,0,0,0,0-.01,0-.02,0,0-.01-.03-.01-.03-.03-.05-.05-.1-.08-.15-.09-.18-.19-.36-.29-.54,0,0,0,0,0,0,0,0,0,0,0,0h0s0,0,0,0l-.07-.14c-.11-.21-.23-.42-.35-.63l-.11-.19s0,0,0,0c-.11-.2-.23-.39-.34-.59,0,0,0,0,0,0l-.13-.22c-.11-.19-.23-.37-.34-.56,0,0,0,0,0,0l-.15-.24c-.11-.18-.23-.36-.34-.53l-.16-.25c-.11-.17-.23-.34-.34-.51l-.18-.26c-.11-.15-.21-.31-.34-.48,0,0,0,0,0-.01,0,0,0,0,0,0,0,0-.01-.02-.02-.02l-.17-.24c-.12-.16-.23-.32-.35-.48,0,0,0,0,0,0l-.2-.27c-.12-.16-.24-.31-.35-.47,0,0,0,0,0,0l-.21-.27c-.12-.15-.24-.3-.36-.46,0,0,0,0,0,0l-.22-.27s0,0,0,0c-.12-.15-.24-.29-.36-.44,0,0,0,0,0,0,0,0,0,0,0,0l-.23-.27c-.12-.14-.25-.29-.37-.43,0,0,0,0,0,0-.08-.09-.16-.18-.24-.27-.12-.14-.25-.28-.38-.42l-.24-.27c-.13-.14-.25-.28-.38-.41l-.25-.26c-.13-.14-.26-.27-.39-.4,0,0,0,0,0,0-.08-.08-.16-.16-.26-.26-.13-.13-.26-.26-.4-.4h0s-.26-.25-.26-.25c-.13-.13-.27-.26-.4-.39,0,0,0,0,0,0l-.27-.25c-.14-.13-.27-.25-.41-.38l-.28-.25c-.14-.12-.28-.25-.42-.37,0,0,0,0,0,0h0s-.28-.24-.28-.24c0,0,0,0,0,0l-.05-.04c-.13-.11-.25-.22-.38-.32l-.33-.27c-.13-.11-.26-.21-.39-.32l-.37-.29c-.12-.1-.24-.19-.36-.28l-.33-.25c-.14-.1-.27-.21-.41-.31,0,0,0,0,0,0l-.31-.22c-.15-.11-.3-.22-.45-.32l-.14-.09s0,0,0,0c-.62-.44-1.27-.87-1.92-1.28,0,0,0,0,0,0l-.24-.15c-.12-.07-.24-.15-.36-.22l-.44-.26c-.11-.07-.23-.13-.35-.2l-.22-.13c-.08-.05-.16-.09-.24-.14-.11-.06-.23-.13-.34-.19l-.2-.11c-.09-.05-.19-.1-.28-.15-.11-.06-.23-.12-.34-.18l-.22-.11c-.09-.05-.18-.09-.27-.14-.12-.06-.23-.12-.35-.18l-.18-.09c-.1-.05-.21-.1-.31-.15-.13-.07-.27-.13-.4-.19h-.03s0-.01,0-.01l-.05-.03c-.12-.06-.24-.11-.36-.17-.12-.06-.25-.11-.4-.18,0,0,0,0,0,0h0s-.02,0-.03-.01l-.06-.03c-.12-.06-.25-.11-.37-.16-.14-.06-.29-.12-.43-.18h0s0,0,0,0c-.14-.06-.29-.12-.43-.18-.13-.05-.26-.11-.41-.16-.01,0-.02,0-.03-.01,0,0,0,0,0,0,0,0-.02,0-.03-.01-.14-.05-.27-.11-.41-.16-.15-.06-.29-.11-.44-.17-.15-.06-.3-.11-.45-.17-.15-.05-.29-.11-.44-.16,0,0,0,0,0,0-.15-.05-.3-.11-.45-.16-.15-.05-.3-.1-.44-.15-.15-.05-.31-.1-.46-.15-.15-.05-.3-.09-.45-.14-.16-.05-.31-.09-.47-.14-.15-.04-.3-.09-.45-.13,0,0,0,0,0,0-.16-.04-.31-.09-.47-.13-.15-.04-.3-.08-.45-.12-.16-.04-.32-.08-.48-.12-.15-.04-.3-.07-.45-.11,0,0,0,0,0,0-.16-.04-.32-.08-.48-.11-.15-.03-.3-.07-.45-.1-.16-.04-.33-.07-.49-.1-.15-.03-.3-.06-.45-.09-.16-.03-.31-.06-.47-.09h-.04s0,0,0,0h-.07c-.13-.04-.25-.06-.38-.08-.15-.03-.29-.05-.44-.07l-.11-.02h-.06c-.12-.03-.23-.05-.35-.06,0,0,0,0,0,0-.15-.02-.3-.04-.45-.06h-.07s0,0,0,0h-.11c-.1-.03-.21-.04-.31-.06,0,0,0,0,0,0,0,0,0,0,0,0h0s-.01,0-.01,0c0,0,0,0,0,0-.16-.02-.31-.04-.47-.06l-.18-.02c-.11-.01-.21-.03-.32-.04,0,0,0,0,0,0-.15-.02-.31-.03-.46-.05l-.22-.02c-.1,0-.19-.02-.29-.03,0,0,0,0,0,0,0,0,0,0,0,0-.15-.01-.3-.02-.44-.03l-.26-.02c-.09,0-.19-.01-.28-.02h0s0,0,0,0c0,0,0,0,0,0-.16-.01-.32-.02-.48-.03h-.26c-.08-.02-.16-.02-.25-.03-.2,0-.4-.01-.6-.02h-.38s-.02-.01-.02-.01h0c-.33,0-.67-.01-1-.01C24.6,4.18,4.04,24.73,4.04,50c0,.37,0,.75.01,1.12.29,12,5.18,23.24,13.78,31.65,8.61,8.42,19.99,13.06,32.03,13.06,8.14,0,16.14-2.16,23.13-6.26,6.78-3.97,12.47-9.66,16.44-16.44.26-.45.53-.92.81-1.45.06-.1.11-.21.16-.31l.09-.17c.17-.33.35-.67.51-1.01.08-.16.15-.32.23-.48l.05-.1c.15-.32.3-.63.44-.95.09-.2.18-.4.27-.61.14-.32.27-.65.4-.98l.05-.12c.06-.16.13-.31.19-.47.14-.37.28-.75.41-1.12l.06-.18c.03-.09.07-.19.1-.28.19-.55.36-1.09.52-1.62l.06-.21c.12-.41.23-.82.34-1.23,0,0,0,0,0,0,.21-.78.38-1.48.52-2.12,0,0,0-.01,0-.02,0-.02,0-.05,0-.07,0-.01,0-.02,0-.04,0,0,0,0,0-.01,0-.02,0-.04-.01-.06,0,0,0-.02,0-.03,0-.03-.02-.07-.04-.1,0,0,0-.01-.01-.02-.01-.02-.03-.05-.05-.07,0,0,0,0,0-.01,0,0-.02-.01-.02-.02-.01-.01-.03-.03-.04-.04-.01,0-.02-.02-.04-.03-.02-.01-.03-.02-.05-.03-.01,0-.02-.01-.04-.02-.02,0-.04-.01-.07-.02-.01,0-.02,0-.03,0-.03,0-.07,0-.1,0-.27.02-.5.03-.72.03-4.8,0-8.77-3.59-9.38-8.22h.84c.6,4.17,4.2,7.39,8.54,7.39.2,0,.39,0,.59-.02.05,0,.1,0,.14-.01.19-.02.39-.04.58-.07,0,0,.01,0,.02,0,.18-.03.37-.06.55-.11.05-.01.09-.02.14-.03.19-.04.37-.09.56-.15,0,0,0,0,0,0,0,.05-.02.1-.02.14-.03.17-.06.33-.09.5-.03.19-.07.38-.11.56-.03.17-.07.33-.1.5-.04.19-.08.37-.12.56-.04.17-.08.33-.11.5-.04.18-.09.37-.13.55-.04.16-.08.33-.12.49-.05.18-.1.37-.14.55-.04.16-.09.33-.13.49-.05.18-.1.37-.16.55-.05.16-.1.32-.15.48-.06.18-.11.36-.17.54-.05.16-.1.32-.16.48-.06.18-.12.36-.18.54-.05.16-.11.32-.17.47-.06.18-.13.36-.2.54-.06.16-.12.31-.18.47-.07.18-.14.36-.21.54-.06.15-.12.3-.18.46-.07.18-.15.36-.23.54-.06.15-.13.3-.19.45-.08.18-.16.36-.24.54-.07.15-.13.29-.2.44-.09.18-.17.36-.26.55-.07.14-.13.28-.2.42-.09.19-.19.38-.29.57-.07.13-.13.26-.2.39-.11.21-.22.42-.34.62-.06.11-.12.22-.18.33-.17.31-.35.63-.53.94-4.06,6.93-9.87,12.74-16.8,16.8-7.14,4.18-15.31,6.39-23.63,6.39-12.31,0-23.93-4.74-32.73-13.34-8.78-8.59-13.78-20.07-14.08-32.33,0-.38-.01-.76-.01-1.14C3.05,24.19,24.05,3.18,49.87,3.18c21.31,0,39.95,14.39,45.31,34.99.03.13.05.53-.06.7-.2.28-.74.44-1.03.42-.22-.01-.43-.02-.65-.02-5.09,0-9.34,3.68-10.24,8.51h-1.13ZM98.18,57.61c-.89,6.05-2.98,11.78-6.08,17.07-4.24,7.24-10.31,13.31-17.55,17.55-7.46,4.37-15.99,6.68-24.69,6.68-12.86,0-25-4.95-34.19-13.93C6.5,76,1.28,64.01.97,51.19c0-.4-.01-.8-.01-1.19C.96,23.03,22.9,1.09,49.87,1.09c22.42,0,41.91,15.16,47.42,36.88.07.26.24.95.06,1.66-.13.53-.8,1.2-1.18,1.3-.81.2-1.7.17-2.29.15-.17,0-.32-.01-.44-.01-4.1,0-7.54,2.88-8.41,6.72h-.85c.89-4.31,4.7-7.55,9.27-7.55.2,0,.4,0,.59.02.51.03,1.43-.2,1.87-.82.42-.59.21-1.49.21-1.49C90.63,16.91,71.62,2.22,49.87,2.22,23.52,2.22,2.09,23.66,2.09,50c0,.39,0,.78.01,1.17.3,12.51,5.4,24.23,14.36,33,8.98,8.78,20.84,13.61,33.4,13.61,2.12,0,4.24-.14,6.33-.42,6.27-.83,12.33-2.9,17.79-6.1,4.86-2.85,9.18-6.54,12.75-10.87,1.62-1.97,3.09-4.07,4.39-6.28,3.04-5.2,5.05-10.86,5.96-16.84,0-.01,0-.02,0-.03,0-.02,0-.04,0-.06,0-.01,0-.02,0-.03,0,0,0-.02,0-.02,0-.01,0-.02,0-.04,0-.02-.01-.04-.02-.05,0,0,0,0,0,0,0,0,0-.01,0-.02,0,0,0,0,0,0,0,0,0,0,0,0,0-.02-.02-.03-.03-.05,0-.01-.01-.02-.02-.03,0,0,0,0,0,0,0,0,0,0,0,0,0,0-.01-.02-.02-.02,0-.01-.02-.02-.03-.03,0,0-.02-.01-.03-.02,0,0,0,0,0,0,0,0,0,0-.01,0,0,0-.02-.01-.02-.02-.01,0-.03-.02-.04-.02,0,0-.01,0-.02-.01,0,0,0,0,0,0,0,0,0,0,0,0-.01,0-.03,0-.04-.01-.02,0-.03-.01-.05-.01,0,0,0,0,0,0,0,0,0,0,0,0,0,0-.02,0-.02,0,0,0,0,0,0,0-.02,0-.04,0-.06,0-.01,0-.02,0-.03,0,0,0-.02,0-.03,0-.01,0-.02,0-.03,0-.01,0-.03,0-.04.01-.01,0-.02,0-.04.01-.95.4-1.95.61-2.99.61-3.81,0-6.97-2.79-7.57-6.43h1.12c.58,3.03,3.24,5.33,6.45,5.33.2,0,.39-.01.58-.03.06,0,.11,0,.17-.02.65-.07,1.27-.21,1.98-.25.98-.06,2.24.17,2.02,1.64Z"/>
    <polygon points="50.95 68.96 53.9 68.96 53.9 67.68 50.95 67.68 50.95 64.72 49.67 64.72 49.67 67.68 46.71 67.68 46.71 68.96 49.67 68.96 49.67 71.91 50.95 71.91 50.95 68.96"/>
    <path d="M93.52,37.68c-.02-.06-.04-.13-.06-.19.02.06.04.13.06.19,0,0,0,0,0,0Z"/>
  </g>
  <path d="M53.9,54.73c-2.78,0-5.04-2.26-5.04-5.04s2.26-5.04,5.04-5.04,5.04,2.26,5.04,5.04-2.26,5.04-5.04,5.04ZM53.9,44.98c-2.6,0-4.72,2.12-4.72,4.72s2.12,4.72,4.72,4.72,4.72-2.12,4.72-4.72-2.12-4.72-4.72-4.72Z"/>
  <g>
    <g>
      <circle cx="51.63" cy="47.52" r=".94"/>
      <circle cx="53.9" cy="47.52" r=".94"/>
      <circle cx="56.17" cy="47.52" r=".94"/>
    </g>
    <g>
      <circle cx="51.63" cy="49.7" r=".94"/>
      <circle cx="53.9" cy="49.7" r=".94"/>
      <circle cx="56.17" cy="49.7" r=".94"/>
    </g>
    <g>
      <circle cx="51.63" cy="51.87" r=".94"/>
      <circle cx="53.9" cy="51.87" r=".94"/>
      <circle cx="56.17" cy="51.87" r=".94"/>
    </g>
  </g>
  <path d="M93.43,54.73c-2.78,0-5.04-2.26-5.04-5.04s2.26-5.04,5.04-5.04,5.04,2.26,5.04,5.04-2.26,5.04-5.04,5.04ZM93.43,44.98c-2.6,0-4.72,2.12-4.72,4.72s2.12,4.72,4.72,4.72,4.72-2.12,4.72-4.72-2.12-4.72-4.72-4.72Z"/>
  <g>
    <g>
      <circle cx="91.16" cy="47.52" r=".94"/>
      <circle cx="93.43" cy="47.52" r=".94"/>
      <circle cx="95.7" cy="47.52" r=".94"/>
    </g>
    <g>
      <circle cx="91.16" cy="49.7" r=".94"/>
      <circle cx="93.43" cy="49.7" r=".94"/>
      <circle cx="95.7" cy="49.7" r=".94"/>
    </g>
    <g>
      <circle cx="91.16" cy="51.87" r=".94"/>
      <circle cx="93.43" cy="51.87" r=".94"/>
      <circle cx="95.7" cy="51.87" r=".94"/>
    </g>
  </g>
</svg>