<?xml version="1.0" encoding="UTF-8"?>
<svg id="_レイヤー_1" data-name="レイヤー_1" xmlns="http://www.w3.org/2000/svg" width="100" height="100" version="1.1" viewBox="0 0 100 100">
  <!-- Generator: Adobe Illustrator 29.6.1, SVG Export Plug-In . SVG Version: 2.1.1 Build 9)  -->
  <path d="M30.6,30.6V5.8H5.8v24.8h24.8ZM9.3,18.2v-8.8h17.7v17.7H9.3v-8.8Z"/>
  <polygon points="23.5 23.5 23.5 18.2 23.5 12.9 18.2 12.9 12.9 12.9 12.9 18.2 12.9 23.5 18.2 23.5 23.5 23.5"/>
  <polygon points="48.2 30.6 46.5 30.6 44.7 30.6 44.7 32.3 44.7 34.1 46.5 34.1 48.2 34.1 48.2 32.3 48.2 30.6"/>
  <path d="M83.6,80.1v-17.7h-3.5v-3.5h-3.5v3.5h-10.6v-3.5h-7.1v3.5h3.5v3.5h-3.5v3.5h-3.5v3.5h-3.5v-3.5h3.5v-3.5h-3.5v-3.5h-3.5v3.5h-3.5v7.1h3.5v3.5h7.1v7.1h3.5v-10.6h3.5v17.7h-3.5v3.5h7.1v-3.5h3.5v-7.1h-3.5v-3.5h7.1v3.5h3.5v7.1h7.1v-3.5h-3.5v-3.5h7.1v-3.5h-3.5ZM76.5,71.2v5.3h-10.6v-10.6h10.6v5.3Z"/>
  <polygon points="87.1 65.9 87.1 73 87.1 80.1 90.7 80.1 94.2 80.1 94.2 78.3 94.2 76.5 92.4 76.5 90.7 76.5 90.7 74.8 90.7 73 92.4 73 94.2 73 94.2 69.4 94.2 65.9 90.7 65.9 87.1 65.9"/>
  <polygon points="41.2 16.4 39.4 16.4 37.6 16.4 37.6 19.9 37.6 23.5 39.4 23.5 41.2 23.5 41.2 19.9 41.2 16.4"/>
  <polygon points="37.6 12.9 35.9 12.9 34.1 12.9 34.1 14.6 34.1 16.4 35.9 16.4 37.6 16.4 37.6 14.6 37.6 12.9"/>
  <polygon points="62.4 16.4 62.4 11.1 62.4 5.8 58.8 5.8 55.3 5.8 55.3 7.6 55.3 9.3 57.1 9.3 58.8 9.3 58.8 12.9 58.8 16.4 60.6 16.4 62.4 16.4"/>
  <polygon points="48.2 12.9 46.5 12.9 44.7 12.9 44.7 14.6 44.7 16.4 46.5 16.4 48.2 16.4 48.2 14.6 48.2 12.9"/>
  <polygon points="51.8 83.6 51.8 85.4 51.8 87.1 53.5 87.1 55.3 87.1 55.3 85.4 55.3 83.6 53.5 83.6 51.8 83.6"/>
  <polygon points="19.9 44.7 19.9 50 19.9 55.3 21.7 55.3 23.5 55.3 23.5 51.8 23.5 48.2 25.2 48.2 27 48.2 27 46.5 27 44.7 25.2 44.7 23.5 44.7 23.5 41.2 23.5 37.6 30.6 37.6 37.6 37.6 37.6 32.3 37.6 27 35.9 27 34.1 27 34.1 30.6 34.1 34.1 27 34.1 19.9 34.1 19.9 35.9 19.9 37.6 18.2 37.6 16.4 37.6 16.4 35.9 16.4 34.1 11.1 34.1 5.8 34.1 5.8 37.6 5.8 41.2 11.1 41.2 16.4 41.2 16.4 42.9 16.4 44.7 18.2 44.7 19.9 44.7"/>
  <polygon points="12.9 62.4 12.9 64.1 12.9 65.9 14.6 65.9 16.4 65.9 16.4 64.1 16.4 62.4 14.6 62.4 12.9 62.4"/>
  <polygon points="12.9 58.8 11.1 58.8 9.3 58.8 9.3 60.6 9.3 62.4 11.1 62.4 12.9 62.4 12.9 60.6 12.9 58.8"/>
  <polygon points="9.3 55.3 7.6 55.3 5.8 55.3 5.8 57.1 5.8 58.8 7.6 58.8 9.3 58.8 9.3 57.1 9.3 55.3"/>
  <polygon points="41.2 90.7 41.2 92.4 41.2 94.2 42.9 94.2 44.7 94.2 44.7 92.4 44.7 90.7 42.9 90.7 41.2 90.7"/>
  <path d="M41.2,76.5v-7.1h-3.5v-7.1h3.5v-3.5h3.5v-3.5h3.5v-7.1h-3.5v-3.5h3.5v3.5h7.1v3.5h3.5v-3.5h3.5v-3.5h-10.6v-7.1h3.5v-3.5h3.5v3.5h3.5v3.5h3.5v-3.5h3.5v3.5h-3.5v7.1h-3.5v7.1h7.1v3.5h7.1v-14.1h3.5v-3.5h-7.1v-7.1h-7.1v-7.1h-3.5v3.5h-3.5v-3.5h3.5v-3.5h3.5v-3.5h-7.1v-3.5h-3.5v3.5h-3.5v-3.5h-3.5v7.1h-7.1v7.1h3.5v-3.5h3.5v3.5h3.5v-7.1h3.5v7.1h-3.5v3.5h-3.5v3.5h-3.5v3.5h-3.5v3.5h-3.5v3.5h3.5v7.1h-3.5v-3.5h-3.5v7.1h-3.5v3.5h-7.1v3.5h10.6v14.1h7.1v3.5h-7.1v10.6h3.5v-3.5h3.5v-3.5h3.5v-3.5h3.5v-7.1h-7.1ZM71.2,44.7h1.8v3.5h-3.5v-3.5h1.8Z"/>
  <polygon points="41.2 12.9 41.2 11.1 41.2 9.3 39.4 9.3 37.6 9.3 37.6 11.1 37.6 12.9 39.4 12.9 41.2 12.9"/>
  <polygon points="23.5 58.8 21.7 58.8 19.9 58.8 19.9 57.1 19.9 55.3 18.2 55.3 16.4 55.3 16.4 58.8 16.4 62.4 19.9 62.4 23.5 62.4 23.5 60.6 23.5 58.8"/>
  <polygon points="12.9 55.3 12.9 53.5 12.9 51.8 14.6 51.8 16.4 51.8 16.4 48.2 16.4 44.7 14.6 44.7 12.9 44.7 12.9 46.5 12.9 48.2 11.1 48.2 9.3 48.2 9.3 51.8 9.3 55.3 11.1 55.3 12.9 55.3"/>
  <polygon points="44.7 9.3 44.7 7.6 44.7 5.8 42.9 5.8 41.2 5.8 41.2 7.6 41.2 9.3 42.9 9.3 44.7 9.3"/>
  <polygon points="48.2 94.2 50 94.2 51.8 94.2 51.8 92.4 51.8 90.7 50 90.7 48.2 90.7 48.2 92.4 48.2 94.2"/>
  <polygon points="69.4 90.7 69.4 92.4 69.4 94.2 73 94.2 76.5 94.2 76.5 92.4 76.5 90.7 73 90.7 69.4 90.7"/>
  <polygon points="44.7 90.7 46.5 90.7 48.2 90.7 48.2 88.9 48.2 87.1 46.5 87.1 44.7 87.1 44.7 88.9 44.7 90.7"/>
  <polygon points="37.6 41.2 39.4 41.2 41.2 41.2 41.2 39.4 41.2 37.6 39.4 37.6 37.6 37.6 37.6 39.4 37.6 41.2"/>
  <polygon points="5.8 62.4 5.8 64.1 5.8 65.9 7.6 65.9 9.3 65.9 9.3 64.1 9.3 62.4 7.6 62.4 5.8 62.4"/>
  <polygon points="51.8 55.3 51.8 57.1 51.8 58.8 53.5 58.8 55.3 58.8 55.3 57.1 55.3 55.3 53.5 55.3 51.8 55.3"/>
  <polygon points="48.2 58.8 46.5 58.8 44.7 58.8 44.7 60.6 44.7 62.4 46.5 62.4 48.2 62.4 48.2 60.6 48.2 58.8"/>
  <polygon points="34.1 44.7 32.3 44.7 30.6 44.7 30.6 46.5 30.6 48.2 28.8 48.2 27 48.2 27 50 27 51.8 30.6 51.8 34.1 51.8 34.1 48.2 34.1 44.7"/>
  <polygon points="30.6 44.7 30.6 42.9 30.6 41.2 28.8 41.2 27 41.2 27 42.9 27 44.7 28.8 44.7 30.6 44.7"/>
  <polygon points="30.6 55.3 27 55.3 23.5 55.3 23.5 57.1 23.5 58.8 27 58.8 30.6 58.8 30.6 57.1 30.6 55.3"/>
  <polygon points="69.4 69.4 69.4 71.2 69.4 73 71.2 73 73 73 73 71.2 73 69.4 71.2 69.4 69.4 69.4"/>
  <path d="M81.8,5.8h-12.4v24.8h24.8V5.8h-12.4ZM90.7,18.2v8.8h-17.7V9.3h17.7v8.8Z"/>
  <polygon points="76.5 12.9 76.5 18.2 76.5 23.5 81.8 23.5 87.1 23.5 87.1 18.2 87.1 12.9 81.8 12.9 76.5 12.9"/>
  <polygon points="87.1 35.9 87.1 34.1 85.4 34.1 83.6 34.1 83.6 35.9 83.6 37.6 85.4 37.6 87.1 37.6 87.1 35.9"/>
  <polygon points="90.7 37.6 90.7 39.4 90.7 41.2 87.1 41.2 83.6 41.2 83.6 42.9 83.6 44.7 85.4 44.7 87.1 44.7 87.1 48.2 87.1 51.8 88.9 51.8 90.7 51.8 90.7 53.5 90.7 55.3 87.1 55.3 83.6 55.3 83.6 57.1 83.6 58.8 85.4 58.8 87.1 58.8 87.1 60.6 87.1 62.4 88.9 62.4 90.7 62.4 90.7 60.6 90.7 58.8 92.4 58.8 94.2 58.8 94.2 53.5 94.2 48.2 92.4 48.2 90.7 48.2 90.7 46.5 90.7 44.7 92.4 44.7 94.2 44.7 94.2 41.2 94.2 37.6 92.4 37.6 90.7 37.6"/>
  <polygon points="83.6 48.2 81.8 48.2 80.1 48.2 80.1 51.8 80.1 55.3 81.8 55.3 83.6 55.3 83.6 51.8 83.6 48.2"/>
  <path d="M5.8,69.4v24.8h24.8v-24.8H5.8ZM27,81.8v8.8H9.3v-17.7h17.7v8.8Z"/>
  <polygon points="12.9 76.5 12.9 81.8 12.9 87.1 18.2 87.1 23.5 87.1 23.5 81.8 23.5 76.5 18.2 76.5 12.9 76.5"/>
  <polygon points="87.1 87.1 87.1 90.7 87.1 94.2 90.7 94.2 94.2 94.2 94.2 92.4 94.2 90.7 92.4 90.7 90.7 90.7 90.7 88.9 90.7 87.1 88.9 87.1 87.1 87.1"/>
  <polygon points="90.7 83.6 90.7 85.4 90.7 87.1 92.4 87.1 94.2 87.1 94.2 85.4 94.2 83.6 92.4 83.6 90.7 83.6"/>
</svg>