<?xml version="1.0" encoding="UTF-8"?>
<svg id="_レイヤー_1" data-name="レイヤー_1" xmlns="http://www.w3.org/2000/svg" version="1.1" viewBox="0 0 500 300">
  <!-- Generator: Adobe Illustrator 30.0.0, SVG Export Plug-In . SVG Version: 2.1.1 Build 123)  -->
  <polygon points="248.88 110.42 291.64 5.4 180.34 6.64 151.14 169.65 90.13 68.22 2.4 96.6 174.62 292.79 224.83 169.47 148.66 214.16 235.75 142.67 244.19 121.93 203.33 94.95 248.88 110.42" fill="#ff6467"/>
  <polygon points="438.51 105.71 473.29 133.9 497.54 83.32 437.31 21.9 300.25 46.43 297.78 101.67 372.82 59.73 298.75 126.45 359.99 145.64 296.32 138.73 295.94 151.4 385.08 193.64 360.92 229.53 278.75 174.04 244.77 203.6 323.13 294.6 445.66 268.13 457.63 160.75 354.28 127.4 357.33 105.2 438.51 105.71" fill="#ff6467"/>
</svg>